<?xml version="1.0" standalone="no"?>
<!DOCTYPE svg PUBLIC "-//W3C//DTD SVG 20010904//EN"
 "http://www.w3.org/TR/2001/REC-SVG-20010904/DTD/svg10.dtd">
<svg version="1.0" xmlns="http://www.w3.org/2000/svg"
 width="512.000000pt" height="512.000000pt" viewBox="0 0 512.000000 512.000000"
 preserveAspectRatio="xMidYMid meet">
<metadata>
Created by potrace 1.14, written by Peter Selinger 2001-2017
</metadata>
<g transform="translate(0.000000,512.000000) scale(0.100000,-0.100000)"
fill="#000000" stroke="none">
<path d="M480 5104 c-184 -49 -341 -180 -421 -349 -63 -135 -59 19 -57 -2221
l3 -2039 26 -67 c75 -192 205 -322 397 -397 l67 -26 2065 0 2065 0 67 26 c192
75 322 205 397 397 l26 67 0 2065 0 2065 -26 67 c-75 192 -205 322 -397 397
l-67 26 -2045 2 c-1774 2 -2052 0 -2100 -13z m1195 -1719 c28 -12 64 -36 81
-52 33 -31 69 -81 63 -87 -2 -1 -66 -46 -141 -100 -156 -109 -218 -176 -271
-289 -87 -184 -86 -368 4 -556 57 -117 161 -222 279 -280 181 -89 365 -93 541
-13 36 16 225 141 420 277 194 137 372 259 394 272 95 54 229 11 282 -92 26
-48 22 -132 -7 -185 -22 -40 -73 -78 -420 -322 -424 -297 -498 -340 -665 -385
-89 -23 -118 -26 -260 -26 -141 0 -172 3 -256 25 -303 82 -544 278 -679 553
-146 296 -143 619 6 924 49 99 67 125 137 195 161 160 341 211 492 141z m1707
6 c421 -110 721 -434 788 -853 18 -110 8 -311 -19 -418 -25 -93 -91 -243 -141
-314 -107 -157 -273 -257 -430 -259 -67 -2 -84 2 -142 31 -63 31 -154 114
-143 132 2 4 60 46 128 93 199 139 285 247 327 413 125 487 -334 917 -807 759
-99 -33 -82 -23 -509 -322 -199 -139 -374 -257 -389 -263 -46 -18 -118 -12
-166 13 -121 64 -145 230 -46 324 31 30 647 465 764 540 103 66 284 130 413
147 80 10 296 -3 372 -23z"/>
</g>
</svg>
