<svg fill="none" xmlns="http://www.w3.org/2000/svg" viewBox="0 0 127 22">
    <path d="M51.306 17.829c-2.77 0-4.75-1.396-5.52-3.583l1.666-.959c.521 1.604 1.771 2.646 3.896 2.646 2.062 0 3.083-.937 3.083-2.25 0-1.5-1.291-2-3.437-2.666-2.333-.75-4.583-1.48-4.583-4.187 0-2.625 2.146-4.125 4.583-4.125 2.396 0 4.125 1.354 4.937 3.187l-1.625.938c-.52-1.25-1.541-2.25-3.312-2.25-1.563 0-2.646.833-2.646 2.166 0 1.354 1.021 1.854 3.063 2.5 2.541.833 4.937 1.583 4.937 4.396 0 2.562-2.063 4.187-5.042 4.187ZM63.815 8.892h-2.77v5.645c0 1.583.916 1.48 2.77 1.396v1.625c-3.124.416-4.583-.417-4.583-3.02V8.891H57.17v-1.75h2.062V4.767l1.813-.541v2.916h2.77v1.75ZM74.056 7.142h1.813v10.416h-1.813v-1.792c-.833 1.271-2.166 2.063-3.937 2.063-2.895 0-5.27-2.396-5.27-5.479s2.374-5.479 5.27-5.479c1.77 0 3.104.792 3.937 2.063V7.142Zm-3.708 8.937c2.104 0 3.708-1.604 3.708-3.729s-1.604-3.729-3.708-3.729c-2.083 0-3.687 1.604-3.687 3.729s1.604 3.729 3.687 3.729ZM80.427 8.892c.666-1.458 1.937-1.937 3.25-1.937V8.85c-1.563-.062-3.25.73-3.25 3.188v5.52h-1.813V7.142h1.813v1.75ZM91.36 8.892h-2.77v5.645c0 1.583.916 1.48 2.77 1.396v1.625c-3.124.416-4.583-.417-4.583-3.02V8.891h-2.062v-1.75h2.062V4.767l1.813-.541v2.916h2.77v1.75ZM100.754 7.142h1.812v10.416h-1.812v-1.5c-.77 1.23-1.917 1.77-3.375 1.77-2.437 0-4.041-1.624-4.041-4.29V7.141h1.812v6.291c0 1.708.98 2.667 2.583 2.667 1.667 0 3.021-.98 3.021-3.438v-5.52ZM111.075 6.871c2.896 0 5.27 2.396 5.27 5.479s-2.374 5.479-5.27 5.479c-1.771 0-3.104-.792-3.937-2.063v5.958h-1.813V7.142h1.813v1.792c.833-1.271 2.166-2.063 3.937-2.063Zm-.229 9.208c2.083 0 3.687-1.604 3.687-3.729s-1.604-3.729-3.687-3.729c-2.104 0-3.708 1.604-3.708 3.729s1.604 3.729 3.708 3.729Z" fill="#fff"/>
    <path fill-rule="evenodd" clip-rule="evenodd" d="M10.794 7.798 18.79 2.2c5.508-3.856 13.13-2.514 16.986 2.994 2.781 3.97 2.863 9.037.626 13.007-2.14 3.798-6.85 5.287-8.932 1.748l2.514-1.756c3.31-2.31 4.115-6.883 1.797-10.193-2.31-3.31-6.882-4.116-10.192-1.797L13.592 11.8a2.441 2.441 0 1 1-2.798-4.003Zm16.391 6.4-7.996 5.597C13.681 23.66 6.06 22.309 2.204 16.803c-2.781-3.97-2.863-9.038-.626-13.007 2.14-3.8 6.849-5.287 8.931-1.75L7.995 3.802c-3.31 2.31-4.115 6.882-1.797 10.193 2.31 3.31 6.882 4.115 10.193 1.797l7.996-5.597a2.441 2.441 0 1 1 2.798 4.003Z" fill="#fff"/>
</svg>
