<svg width="10" height="10" viewBox="0 0 10 10" fill="none" xmlns="http://www.w3.org/2000/svg">
<path d="M9.92988 7.28443C9.92988 7.28443 9.92779 2.56672 9.92726 0.728562C9.92726 0.575601 9.86492 0.436783 9.76435 0.336205C9.66377 0.235628 9.52548 0.173814 9.37199 0.17329C7.53488 0.172766 2.81717 0.171717 2.81717 0.171717C2.66578 0.171193 2.52853 0.233007 2.429 0.332536C2.3279 0.433638 2.26609 0.572979 2.26609 0.726988C2.26556 1.03344 2.51281 1.28278 2.81717 1.28226L8.03253 1.28226L0.336256 8.97853C0.119386 9.1954 0.119386 9.54743 0.336256 9.7643C0.553126 9.98117 0.905147 9.98117 1.12202 9.7643L8.81829 2.06802L8.81829 7.28443C8.81829 7.58721 9.06764 7.83342 9.37356 7.83342C9.52862 7.83342 9.66849 7.77108 9.76906 7.6705C9.86859 7.57097 9.92936 7.43478 9.92988 7.28443Z" fill="white"/>
</svg>
