<svg width="117" height="22" viewBox="0 0 117 22" fill="none" xmlns="http://www.w3.org/2000/svg">
<path d="M51.3064 17.8287C48.5358 17.8287 46.5568 16.433 45.786 14.2457L47.4525 13.2874C47.9733 14.8915 49.2232 15.933 51.3481 15.933C53.4104 15.933 54.4311 14.9956 54.4311 13.6832C54.4311 12.1833 53.1396 11.6834 50.9939 11.0168C48.6608 10.2668 46.411 9.53773 46.411 6.82962C46.411 4.20483 48.5566 2.70496 50.9939 2.70496C53.3896 2.70496 55.1186 4.05901 55.931 5.8922L54.3061 6.82962C53.7854 5.57972 52.7646 4.5798 50.9939 4.5798C49.4315 4.5798 48.3483 5.41307 48.3483 6.74629C48.3483 8.10035 49.3691 8.60031 51.4105 9.24609C53.952 10.0794 56.3476 10.8293 56.3476 13.6416C56.3476 16.2039 54.2853 17.8287 51.3064 17.8287Z" fill="white"/>
<path d="M63.8153 8.89195H61.0447V14.5373C61.0447 16.1205 61.9613 16.0164 63.8153 15.933V17.5579C60.6906 17.9745 59.2323 17.1413 59.2323 14.5373V8.89195H57.17V7.14209H59.2323V4.76729L61.0447 4.22566V7.14209H63.8153V8.89195Z" fill="white"/>
<path d="M74.0563 7.14209H75.8687V17.5579H74.0563V15.7664C73.2231 17.0371 71.8898 17.8287 70.1191 17.8287C67.2235 17.8287 64.8487 15.4331 64.8487 12.35C64.8487 9.26692 67.2235 6.87128 70.1191 6.87128C71.8898 6.87128 73.2231 7.66288 74.0563 8.93361V7.14209ZM70.3483 16.0789C72.4523 16.0789 74.0563 14.4748 74.0563 12.35C74.0563 10.2252 72.4523 8.62114 70.3483 8.62114C68.2651 8.62114 66.6611 10.2252 66.6611 12.35C66.6611 14.4748 68.2651 16.0789 70.3483 16.0789Z" fill="white"/>
<path d="M80.4269 8.89195C81.0935 7.43374 82.3642 6.95461 83.6766 6.95461V8.85029C82.1143 8.78779 80.4269 9.57939 80.4269 12.0375V17.5579H78.6145V7.14209H80.4269V8.89195Z" fill="white"/>
<path d="M91.3602 8.89195H88.5896V14.5373C88.5896 16.1205 89.5062 16.0164 91.3602 15.933V17.5579C88.2355 17.9745 86.7773 17.1413 86.7773 14.5373V8.89195H84.7149V7.14209H86.7773V4.76729L88.5896 4.22566V7.14209H91.3602V8.89195Z" fill="white"/>
<path d="M100.754 7.14209H102.566V17.5579H100.754V16.058C99.9831 17.2871 98.8373 17.8287 97.3791 17.8287C94.9418 17.8287 93.3378 16.2039 93.3378 13.5374V7.14209H95.1501V13.4332C95.1501 15.1414 96.1292 16.0997 97.7332 16.0997C99.3998 16.0997 100.754 15.1206 100.754 12.6625V7.14209Z" fill="white"/>
<path d="M111.075 6.87128C113.971 6.87128 116.345 9.26692 116.345 12.35C116.345 15.4331 113.971 17.8287 111.075 17.8287C109.304 17.8287 107.971 17.0371 107.138 15.7664V21.7242H105.325V7.14209H107.138V8.93361C107.971 7.66288 109.304 6.87128 111.075 6.87128ZM110.846 16.0789C112.929 16.0789 114.533 14.4748 114.533 12.35C114.533 10.2252 112.929 8.62114 110.846 8.62114C108.742 8.62114 107.138 10.2252 107.138 12.35C107.138 14.4748 108.742 16.0789 110.846 16.0789Z" fill="white"/>
<path fill-rule="evenodd" clip-rule="evenodd" d="M10.7938 7.79777L18.7902 2.20101C24.2977 -1.65482 31.9191 -0.312672 35.7759 5.19481C38.5574 9.16473 38.6388 14.2318 36.4018 18.2017C34.2621 22 29.5522 23.4889 27.47 19.9505L29.9837 18.1937C33.294 15.8834 34.0994 11.3114 31.7812 8.00113C29.4709 4.69089 24.8988 3.8854 21.5886 6.20366L13.5922 11.8004C12.4851 12.5732 10.9644 12.3043 10.1917 11.1983C9.41893 10.0912 9.68776 8.57053 10.7938 7.79777ZM27.1853 14.198L19.189 19.7948V19.7958C13.6815 23.6596 6.06008 22.3085 2.20425 16.802C-0.577272 12.8321 -0.658614 7.76404 1.57831 3.79512C3.71801 -0.00416822 8.42695 -1.49214 10.5091 2.04527L7.99544 3.80207C4.68519 6.11239 3.8797 10.6844 6.19797 13.9947C8.50829 17.3049 13.0803 18.1104 16.3906 15.7922L24.387 10.1954C25.494 9.42264 27.0147 9.69147 27.7875 10.7975C28.5602 11.9046 28.2914 13.4253 27.1853 14.198Z" fill="white"/>
</svg>
