<svg width="176" height="21" viewBox="0 0 176 21" fill="none" xmlns="http://www.w3.org/2000/svg">
<path d="M134.932 9.63199C134.932 5.61698 137.954 2.41687 142.207 2.41687C144.77 2.41687 147.037 3.74841 148.209 5.79628L146.599 6.73014C145.804 5.19976 144.114 4.20557 142.206 4.20557C138.946 4.20557 136.76 6.57124 136.76 9.63199C136.76 12.6928 138.946 15.0389 142.206 15.0389C144.114 15.0389 145.804 14.0447 146.599 12.5347L148.209 13.449C147.056 15.496 144.791 16.848 142.207 16.848C137.953 16.848 134.932 13.6283 134.932 9.63284V9.63199Z" fill="white"/>
<path d="M163.118 16.5898H161.29V5.7165L156.738 13.2894H156.499L151.947 5.73605V16.5889H150.099V2.67529H152.186L156.618 10.0298L161.031 2.67529H163.117V16.5898H163.118Z" fill="white"/>
<path d="M164.908 13.4286L166.497 12.5143C166.995 14.0447 168.187 15.0389 170.214 15.0389C172.242 15.0389 173.156 14.1441 173.156 12.8924C173.156 11.4615 171.924 10.9839 169.876 10.3483C167.65 9.63284 165.503 8.93691 165.503 6.35286C165.503 3.7688 167.55 2.41687 169.876 2.41687C172.202 2.41687 173.812 3.70847 174.587 5.45808L173.036 6.35286C172.539 5.15982 171.565 4.20642 169.876 4.20642C168.386 4.20642 167.351 5.00177 167.351 6.27383C167.351 7.54589 168.325 8.04298 170.274 8.65904C172.699 9.4544 174.985 10.1699 174.985 12.8533C174.985 15.298 173.017 16.8488 170.174 16.8488C167.531 16.8488 165.643 15.5173 164.907 13.4303L164.908 13.4286Z" fill="white"/>
<path d="M124.141 12.7421C124.478 14.0125 125.51 14.5512 126.786 14.5512C127.724 14.5512 128.524 14.0031 128.936 13.4448L130.747 14.75C129.865 16.0586 128.549 16.8038 126.748 16.8038C123.597 16.8038 121.608 14.5903 121.608 11.7216C121.608 8.85285 123.615 6.63928 126.561 6.63928C129.337 6.63928 131.306 8.89194 131.306 11.7216C131.306 12.087 131.269 12.4149 131.213 12.7421H124.141ZM124.103 10.8174H128.886C128.586 9.43152 127.574 8.87324 126.561 8.87324C125.267 8.87324 124.384 9.58532 124.103 10.8174Z" fill="white"/>
<path d="M69.1489 12.7421C69.4863 14.0125 70.5187 14.5512 71.7942 14.5512C72.7323 14.5512 73.5319 14.0031 73.944 13.4448L75.7556 14.75C74.8736 16.0586 73.5574 16.8038 71.7568 16.8038C68.6051 16.8038 66.6167 14.5903 66.6167 11.7216C66.6167 8.85285 68.6238 6.63928 71.569 6.63928C74.3451 6.63928 76.3148 8.89194 76.3148 11.7216C76.3148 12.087 76.2774 12.4149 76.2213 12.7421H69.1489ZM69.1115 10.8174H73.8947C73.5947 9.43152 72.5819 8.87324 71.569 8.87324C70.2748 8.87324 69.3928 9.58532 69.1115 10.8174Z" fill="white"/>
<path d="M50.112 5.75479C49.2843 5.75479 48.5918 5.0614 48.5918 4.23376C48.5918 3.40611 49.2843 2.69403 50.112 2.69403C50.9396 2.69403 51.6517 3.40611 51.6517 4.23376C51.6517 5.0614 50.9592 5.75479 50.112 5.75479Z" fill="white"/>
<path d="M51.3625 6.90942H48.8804V16.5344H51.3625V6.90942Z" fill="white"/>
<path d="M55.7365 2.05261H53.2544V16.5338H55.7365V2.05261Z" fill="white"/>
<path d="M63.991 6.909H66.7238L63.1965 16.534H60.3686L56.8413 6.909H59.5741L61.7732 13.6466L63.991 6.909Z" fill="white"/>
<path d="M80.028 8.564C80.5285 7.2554 81.7402 6.71582 82.9528 6.71582V9.48766C81.6637 9.33386 80.028 9.91083 80.028 11.9324V16.5328H77.5459V6.90871H80.028V8.564Z" fill="white"/>
<path d="M86.4174 9.64226C86.4174 9.12222 86.9179 8.85285 87.5332 8.85285C88.1908 8.85285 88.9114 9.26582 89.2445 9.81475L91.108 8.54694C90.3441 7.30548 89.038 6.63928 87.5332 6.63928C85.5516 6.63928 83.8776 7.73629 83.8776 9.70004C83.8776 13.0879 88.8418 12.3181 88.8418 13.7235C88.8418 14.2818 88.303 14.5512 87.5145 14.5512C86.5857 14.5512 85.8005 13.9734 85.5048 13.2231L83.5088 14.5809C84.2132 16.0187 85.6204 16.803 87.5145 16.803C89.5734 16.803 91.3816 15.802 91.3816 13.7227C91.3816 10.181 86.4174 11.0664 86.4174 9.64141V9.64226Z" fill="white"/>
<path d="M98.0605 9.29582H95.886V13.2998C95.886 14.339 96.6364 14.3586 98.0605 14.2812V16.533C94.5775 16.918 93.404 15.8974 93.404 13.2989V9.29497H91.73V6.90806H93.404V4.96386L95.886 3.24908V6.90806H98.0605V9.29497V9.29582Z" fill="white"/>
<path d="M101.84 8.564C102.34 7.2554 103.552 6.71582 104.765 6.71582V9.48766C103.476 9.33386 101.84 9.91083 101.84 11.9324V16.5328H99.3579V6.90871H101.84V8.564Z" fill="white"/>
<path d="M107.351 5.75479C106.524 5.75479 105.831 5.0614 105.831 4.23376C105.831 3.40611 106.524 2.69403 107.351 2.69403C108.179 2.69403 108.891 3.40611 108.891 4.23376C108.891 5.0614 108.198 5.75479 107.351 5.75479Z" fill="white"/>
<path d="M108.603 6.90942H106.121V16.5344H108.603V6.90942Z" fill="white"/>
<path d="M115.963 6.63928C118.541 6.63928 120.657 8.85285 120.657 11.7216C120.657 14.5903 118.541 16.8038 115.963 16.8038C114.558 16.8038 113.538 16.2838 112.846 15.3984V20.1178H110.364V6.90865H112.846V8.04475C113.538 7.15932 114.558 6.63928 115.963 6.63928ZM115.501 14.4356C117.041 14.4356 118.176 13.3386 118.176 11.7216C118.176 10.1045 117.041 9.0075 115.501 9.0075C113.962 9.0075 112.846 10.1045 112.846 11.7216C112.846 13.3386 113.981 14.4356 115.501 14.4356Z" fill="white"/>
<path d="M43.0958 8.53346C41.0182 7.90635 40.4896 7.45514 40.4896 6.6122C40.4896 5.82789 41.1558 5.23988 42.2928 5.23988C43.5988 5.23988 44.6542 5.96555 45.1836 6.91386L47.2663 5.45741C46.3137 3.65257 44.4706 2.61249 42.2919 2.61249C39.9398 2.61249 37.7841 4.10293 37.7841 6.69038C37.7841 9.27783 39.8226 10.1803 41.9189 10.7878C43.9574 11.3758 44.8785 11.7684 44.8785 12.7872C44.8785 13.552 44.31 14.2377 42.6836 14.2377C41.0572 14.2377 39.939 13.2257 39.4181 12.0208L37.2827 13.5138C38.067 15.4639 39.8829 16.8847 42.6055 16.8847C45.5252 16.8847 47.5832 15.3161 47.5832 12.7482C47.5832 9.94487 45.2711 9.2192 43.0958 8.53261V8.53346Z" fill="white"/>
<path d="M16.0968 2.00332L9.24709 6.79754C8.29964 7.45949 8.06936 8.76213 8.7313 9.71044C9.39325 10.6579 10.6959 10.8882 11.6442 10.2262L18.4939 5.43201C21.3295 3.44617 25.246 4.13616 27.225 6.97174C29.2108 9.80731 28.5208 13.7238 25.6853 15.7028L23.532 17.2077C25.3156 20.2387 29.3502 18.9632 31.1831 15.7096C33.0992 12.3089 33.0296 7.96848 30.6469 4.56783C27.3423 -0.149916 20.8137 -1.29961 16.0968 2.00332Z" fill="white"/>
<path d="M16.4374 17.0742L23.2871 12.2799C24.2346 11.618 24.4648 10.3153 23.8029 9.36703C23.141 8.41957 21.8383 8.18929 20.89 8.85123L14.0403 13.6455C11.2047 15.6313 7.28825 14.9413 5.30921 12.1057C3.32338 9.27016 4.01336 5.35371 6.84894 3.37467L9.00217 1.86979C7.21942 -1.16038 3.18487 0.115077 1.35199 3.36872C-0.564172 6.76938 -0.494494 11.1098 1.88817 14.5105C5.1911 19.2274 11.7196 20.3847 16.4374 17.075V17.0742Z" fill="white"/>
</svg>
